<mxfile host="app.diagrams.net" modified="2024-05-02T18:35:30.847Z" agent="Mozilla/5.0 (Windows NT 10.0; Win64; x64; rv:123.0) Gecko/20100101 Firefox/123.0" etag="l2RmES7qYULJNOYl_m7k" version="24.3.1" type="github">
  <diagram name="Seite-1" id="VNtby4uuGCgCUC4f4gdW">
    <mxGraphModel dx="600" dy="303" grid="1" gridSize="10" guides="1" tooltips="1" connect="1" arrows="1" fold="1" page="1" pageScale="1" pageWidth="827" pageHeight="1169" math="0" shadow="0">
      <root>
        <mxCell id="0" />
        <mxCell id="1" parent="0" />
        <mxCell id="FGn_l6g94r6J0e5TmOLu-1" value="" style="shape=display;whiteSpace=wrap;html=1;rotation=-179;" vertex="1" parent="1">
          <mxGeometry x="170" y="220" width="29.91" height="9.91" as="geometry" />
        </mxCell>
        <mxCell id="FGn_l6g94r6J0e5TmOLu-5" value="" style="triangle;whiteSpace=wrap;html=1;" vertex="1" parent="1">
          <mxGeometry x="260" y="210" width="40" height="50" as="geometry" />
        </mxCell>
        <mxCell id="FGn_l6g94r6J0e5TmOLu-6" value="" style="endArrow=none;html=1;rounded=0;" edge="1" parent="1">
          <mxGeometry width="50" height="50" relative="1" as="geometry">
            <mxPoint x="199.91" y="224.86" as="sourcePoint" />
            <mxPoint x="260" y="224.86" as="targetPoint" />
          </mxGeometry>
        </mxCell>
        <mxCell id="FGn_l6g94r6J0e5TmOLu-7" value="" style="endArrow=none;html=1;rounded=0;" edge="1" parent="1">
          <mxGeometry width="50" height="50" relative="1" as="geometry">
            <mxPoint x="199.91" y="244.85999999999999" as="sourcePoint" />
            <mxPoint x="260" y="244.85999999999999" as="targetPoint" />
          </mxGeometry>
        </mxCell>
        <mxCell id="FGn_l6g94r6J0e5TmOLu-8" value="" style="swimlane;startSize=0;" vertex="1" collapsed="1" parent="1">
          <mxGeometry x="400" y="220" width="40" height="40" as="geometry">
            <mxRectangle x="400" y="220" width="70" height="69.91" as="alternateBounds" />
          </mxGeometry>
        </mxCell>
        <mxCell id="FGn_l6g94r6J0e5TmOLu-9" value="" style="shape=display;whiteSpace=wrap;html=1;rotation=-179;" vertex="1" parent="1">
          <mxGeometry x="170" y="240" width="29.91" height="9.91" as="geometry" />
        </mxCell>
      </root>
    </mxGraphModel>
  </diagram>
</mxfile>
